<?xml version="1.0" encoding="UTF-8"?>
<svg width="32px" height="32px" viewBox="0 0 32 32" version="1.1" xmlns="http://www.w3.org/2000/svg" xmlns:xlink="http://www.w3.org/1999/xlink">
    <!-- Generator: Sketch 47 (45396) - http://www.bohemiancoding.com/sketch -->
    <title>acc settings</title>
    <desc>Created with Sketch.</desc>
    <defs></defs>
    <g id="Symbols" stroke="none" stroke-width="1" fill="none" fill-rule="evenodd" stroke-linejoin="round">
        <g id="acc-settings" stroke="#0595DB">
            <g id="Group-96" transform="translate(8.000000, 8.000000)">
                <path d="M7.66666667,10.3333333 C7.66666667,11.438 6.77066667,12.3333333 5.66666667,12.3333333 C4.56133333,12.3333333 3.66666667,11.438 3.66666667,10.3333333 C3.66666667,9.22933333 4.56133333,8.33333333 5.66666667,8.33333333 C6.77066667,8.33333333 7.66666667,9.22933333 7.66666667,10.3333333 L7.66666667,10.3333333 Z" id="Stroke-6361"></path>
                <path d="M9.9004,9.4284 L10.9517333,8.82106667 L9.6184,6.51173333 L8.56906667,7.11773333 C8.1164,6.7104 7.5804,6.40373333 6.99973333,6.21506667 L6.99973333,4.99973333 L4.33306667,4.99973333 L4.33306667,6.21373333 C3.73573333,6.40706667 3.2044,6.71773333 2.7624,7.11773333 L1.7144,6.51173333 L0.381066667,8.82106667 L1.43306667,9.42906667 C1.3084,10.0090667 1.30106667,10.6224 1.43306667,11.2377333 L0.381066667,11.8450667 L1.7144,14.1544 L2.76373333,13.5490667 C3.2164,13.9570667 3.7524,14.2630667 4.33306667,14.4517333 L4.33306667,15.6664 L6.99973333,15.6664 L6.99973333,14.4530667 C7.59706667,14.2604 8.1284,13.9497333 8.5704,13.5497333 L9.6184,14.1544 L10.9517333,11.8450667 L9.89973333,11.2384 C10.0250667,10.6577333 10.0317333,10.0444 9.9004,9.4284 L9.9004,9.4284 Z" id="Stroke-6362"></path>
                <path d="M13.6666667,3.33333333 C13.6666667,3.886 13.218,4.33333333 12.6666667,4.33333333 C12.1146667,4.33333333 11.6666667,3.886 11.6666667,3.33333333 C11.6666667,2.78133333 12.1146667,2.33333333 12.6666667,2.33333333 C13.218,2.33333333 13.6666667,2.78133333 13.6666667,3.33333333 L13.6666667,3.33333333 Z" id="Stroke-6363"></path>
                <path d="M14.9264,2.7982 L15.5977333,2.4102 L14.9310667,1.25553333 L14.2597333,1.64353333 C14.0030667,1.40086667 13.6930667,1.21086667 13.3330667,1.10353333 L13.3330667,0.333533333 L11.9997333,0.333533333 L11.9997333,1.1042 C11.6517333,1.2082 11.3350667,1.3922 11.0704,1.64153333 L10.4024,1.25553333 L9.73573333,2.4102 L10.4024,2.79553333 C10.3157333,3.16086667 10.3237333,3.52486667 10.4057333,3.8682 L9.73573333,4.25553333 L10.4024,5.4102 L11.0724,5.02353333 C11.3297333,5.2662 11.6397333,5.45686667 11.9997333,5.5642 L11.9997333,6.33353333 L13.3330667,6.33353333 L13.3330667,5.56286667 C13.6817333,5.4582 13.9984,5.2742 14.2630667,5.02486667 L14.9310667,5.4102 L15.5977333,4.25553333 L14.9304,3.8702 C15.0164,3.50486667 15.0084,3.14153333 14.9264,2.7982 L14.9264,2.7982 Z" id="Stroke-6364"></path>
            </g>
        </g>
    </g>
</svg>
