<?xml version="1.0" encoding="UTF-8"?>
<svg width="19px" height="22px" viewBox="0 0 21 25" version="1.1" xmlns="http://www.w3.org/2000/svg" xmlns:xlink="http://www.w3.org/1999/xlink">
    <!-- Generator: Sketch 50 (54983) - http://www.bohemiancoding.com/sketch -->
    <title>Group 327</title>
    <desc>Created with Sketch.</desc>
    <defs></defs>
    <g id="Streamline-Basic---Lines" stroke="none" stroke-width="1" fill="none" fill-rule="evenodd" stroke-linecap="round" stroke-linejoin="round">
        <g id="Icons" transform="translate(-337.000000, -2255.000000)" stroke="#0595DB">
            <g id="Group-327" transform="translate(337.000000, 2256.000000)">
                <path d="M10.5078,0.4795 L10.4908,0.4795 C7.9998,2.9765 0.4998,5.0005 0.4998,5.0005 C0.4998,12.9605 0.9998,19.9605 10.4998,23.4795 C19.9998,19.9605 20.4998,12.9605 20.4998,5.0005 C20.4998,5.0005 12.9998,2.9765 10.5078,0.4795 L10.5078,0.4795 Z" id="Stroke-5755"></path>
                <path d="M13.5,8.1602 C13.5,9.8162 12.157,11.1602 10.5,11.1602 C8.842,11.1602 7.5,9.8162 7.5,8.1602 C7.5,6.5032 8.842,5.1602 10.5,5.1602 C12.157,5.1602 13.5,6.5032 13.5,8.1602 L13.5,8.1602 Z" id="Stroke-5756"></path>
                <path d="M15.8398,16.5 L5.1598,16.5 C5.1598,13.551 7.5508,11.16 10.4998,11.16 C13.4498,11.16 15.8398,13.551 15.8398,16.5 L15.8398,16.5 Z" id="Stroke-5757"></path>
            </g>
        </g>
    </g>
</svg>
