<?xml version="1.0" encoding="UTF-8"?>
<svg width="25px" height="23px" viewBox="0 0 25 23" version="1.1" xmlns="http://www.w3.org/2000/svg" xmlns:xlink="http://www.w3.org/1999/xlink">
    <g id="Symbols" stroke="none" stroke-width="1" fill="none" fill-rule="evenodd" opacity="1" stroke-linejoin="round">
        <g id="Footer" transform="translate(-1244.000000, -320.000000)" stroke="#FFFFFF">
            <g id="footer">
                <g id="Group-6" transform="translate(1092.000000, 320.000000)">
                    <g id="ICN-googleplus" transform="translate(153.000000, 1.000000)">
                        <path d="M5.5508,2.8896 C5.8748,2.5186 6.3008,2.3236 6.7778,2.3236 L6.8318,2.3236 C8.1808,2.3646 9.4708,3.8666 9.7078,5.6726 C9.8408,6.6856 9.6158,7.6376 9.1078,8.2176 C8.7818,8.5886 8.3638,8.7836 7.8658,8.7836 L7.8648,8.7836 L7.8438,8.7836 C6.5228,8.7436 5.2048,7.1836 4.9688,5.3786 C4.8358,4.3696 5.0488,3.4626 5.5508,2.8896 L5.5508,2.8896 Z M3.6598,16.4426 C3.6598,15.0086 5.4838,13.7496 7.5598,13.7496 L7.6158,13.7496 C8.0678,13.7546 8.5078,13.8216 8.9248,13.9496 C9.0668,14.0476 9.2048,14.1416 9.3368,14.2306 C10.2988,14.8866 10.9338,15.3186 11.1118,16.0136 C11.1528,16.1886 11.1738,16.3636 11.1738,16.5326 C11.1738,18.3186 9.8408,19.2256 7.2128,19.2256 C5.2208,19.2256 3.6598,18.0026 3.6598,16.4426 L3.6598,16.4426 Z M11.3658,11.9276 C10.6368,11.4116 9.9738,10.6546 9.9618,10.4226 C9.9618,9.9976 9.9998,9.7956 10.9498,9.0556 C12.1798,8.0936 12.8568,6.8276 12.8568,5.4916 C12.8568,4.2796 12.4868,3.2026 11.8558,2.4476 L12.3438,2.4476 C12.4458,2.4476 12.5438,2.4146 12.6258,2.3566 L13.9898,1.3676 C14.1588,1.2466 14.2308,1.0296 14.1658,0.8316 C14.1018,0.6346 13.9178,0.4996 13.7088,0.4996 L7.6088,0.4996 C6.9418,0.4996 6.2638,0.6176 5.5978,0.8476 C3.3728,1.6126 1.8198,3.5076 1.8198,5.4526 C1.8198,8.2076 3.9528,10.2966 6.8068,10.3616 C6.7508,10.5816 6.7228,10.7956 6.7228,11.0066 C6.7228,11.4316 6.8308,11.8336 7.0528,12.2226 L6.9738,12.2226 C4.2538,12.2226 1.7988,13.5576 0.8658,15.5426 C0.6228,16.0606 0.4998,16.5816 0.4998,17.0976 C0.4998,17.5986 0.6288,18.0816 0.8818,18.5356 C1.4668,19.5816 2.7248,20.3956 4.4258,20.8246 C5.3028,21.0466 6.2458,21.1596 7.2258,21.1596 C8.1058,21.1596 8.9438,21.0456 9.7198,20.8216 C12.1388,20.1196 13.7008,18.3396 13.7008,16.2836 C13.7008,14.3116 13.0688,13.1326 11.3658,11.9276 L11.3658,11.9276 Z" id="Stroke-209"></path>
                        <polygon id="Stroke-211" points="23.5 8.5 20.5 8.5 20.5 5.5 18.5 5.5 18.5 8.5 15.5 8.5 15.5 10.5 18.5 10.5 18.5 13.5 20.5 13.5 20.5 10.5 23.5 10.5"></polygon>
                    </g>
                </g>
            </g>
        </g>
    </g>
</svg>
