<?xml version="1.0" encoding="UTF-8"?>
<svg width="32px" height="32px" viewBox="0 0 32 32" version="1.1" xmlns="http://www.w3.org/2000/svg" xmlns:xlink="http://www.w3.org/1999/xlink">
    <!-- Generator: Sketch 42 (36781) - http://www.bohemiancoding.com/sketch -->
    <title>Group 265</title>
    <desc>Created with Sketch.</desc>
    <defs></defs>
    <g id="Designs" stroke="none" stroke-width="1" fill="none" fill-rule="evenodd" stroke-linejoin="round">
        <g id="Platform" transform="translate(-1258.000000, -34.000000)" stroke="#888888">
            <g id="top-nav-bar">
                <g id="Group-265" transform="translate(1258.000000, 34.000000)">
                    <path d="M13.3333333,20 C13.3333333,20 11.3333333,19.3333333 11.3333333,16 C10.232,16 10.232,13.3333333 11.3333333,13.3333333 C11.3333333,12.8866667 9.33333333,8 12.6666667,8.66666667 C13.3333333,6 20.6666667,6 21.3333333,8.66666667 C21.796,10.5173333 20.6666667,13.0053333 20.6666667,13.3333333 C21.768,13.3333333 21.768,16 20.6666667,16 C20.6666667,19.3333333 18.6666667,20 18.6666667,20 L18.6666667,23.3333333 C21.9693333,24.572 25.24,25.596 26.9146667,26.7666667 C29.6453333,23.9986667 31.3333333,20.196 31.3333333,16 C31.3333333,7.53066667 24.4693333,0.666666667 16,0.666666667 C7.53066667,0.666666667 0.666666667,7.53066667 0.666666667,16 C0.666666667,20.204 2.36,24.012 5.1,26.7826667 C6.87333333,25.556 10.3693333,24.4546667 13.3333333,23.3333333 L13.3333333,20 L13.3333333,20 Z" id="Stroke-1068"></path>
                    <path d="M5.10026667,26.7825333 C7.88026667,29.5918667 11.7362667,31.3332 16.0002667,31.3332 C20.2709333,31.3332 24.1322667,29.5865333 26.9136,26.7665333" id="Stroke-1069"></path>
                </g>
            </g>
        </g>
    </g>
</svg>