<?xml version="1.0" encoding="UTF-8"?>
<svg width="32px" height="32px" viewBox="0 0 32 32" version="1.1" xmlns="http://www.w3.org/2000/svg" xmlns:xlink="http://www.w3.org/1999/xlink">
    <!-- Generator: Sketch 47 (45396) - http://www.bohemiancoding.com/sketch -->
    <title>logout</title>
    <desc>Created with Sketch.</desc>
    <defs></defs>
    <g id="Symbols" stroke="none" stroke-width="1" fill="none" fill-rule="evenodd" stroke-linecap="round" stroke-linejoin="round">
        <g id="logout" stroke="#0595DB">
            <g id="Group-126" transform="translate(8.000000, 8.000000)">
                <polyline id="Stroke-8055" points="6.33333333 1.66666667 11.6666667 1.66666667 11.6666667 3.33333333"></polyline>
                <polyline id="Stroke-8056" points="11.6666667 13.3333333 11.6666667 14.3333333 6.33333333 14.3333333"></polyline>
                <polygon id="Stroke-8057" points="0.333333333 14.3333333 6.33333333 15.6666667 6.33333333 0.333333333 0.333333333 1.66666667"></polygon>
                <path d="M5,8.33333333 C5,8.88533333 4.552,9.33333333 4,9.33333333 C3.448,9.33333333 3,8.88533333 3,8.33333333 C3,7.78133333 3.448,7.33333333 4,7.33333333 C4.552,7.33333333 5,7.78133333 5,8.33333333 L5,8.33333333 Z" id="Stroke-8058"></path>
                <path d="M8,8.33886667 L15.6666667,8.33886667" id="Stroke-8059"></path>
                <polyline id="Stroke-8060" points="13 5.66666667 15.6666667 8.33333333 13 11"></polyline>
            </g>
        </g>
    </g>
</svg>
