<?xml version="1.0" encoding="UTF-8"?>
<svg width="32px" height="32px" viewBox="0 0 32 32" version="1.1" xmlns="http://www.w3.org/2000/svg" xmlns:xlink="http://www.w3.org/1999/xlink">
    <!-- Generator: Sketch 47 (45396) - http://www.bohemiancoding.com/sketch -->
    <title>my profile</title>
    <desc>Created with Sketch.</desc>
    <defs></defs>
    <g id="Symbols" stroke="none" stroke-width="1" fill="none" fill-rule="evenodd" stroke-linejoin="round">
        <g id="my-profile" stroke="#48B0F7">
            <g id="Group-265" transform="translate(8.000000, 8.000000)">
                <path d="M6.66666667,10 C6.66666667,10 5.66666667,9.66666667 5.66666667,8 C5.116,8 5.116,6.66666667 5.66666667,6.66666667 C5.66666667,6.44333333 4.66666667,4 6.33333333,4.33333333 C6.66666667,3 10.3333333,3 10.6666667,4.33333333 C10.898,5.25866667 10.3333333,6.50266667 10.3333333,6.66666667 C10.884,6.66666667 10.884,8 10.3333333,8 C10.3333333,9.66666667 9.33333333,10 9.33333333,10 L9.33333333,11.6666667 C10.9846667,12.286 12.62,12.798 13.4573333,13.3833333 C14.8226667,11.9993333 15.6666667,10.098 15.6666667,8 C15.6666667,3.76533333 12.2346667,0.333333333 8,0.333333333 C3.76533333,0.333333333 0.333333333,3.76533333 0.333333333,8 C0.333333333,10.102 1.18,12.006 2.55,13.3913333 C3.43666667,12.778 5.18466667,12.2273333 6.66666667,11.6666667 L6.66666667,10 L6.66666667,10 Z" id="Stroke-1068"></path>
                <path d="M2.55013333,13.3912667 C3.94013333,14.7959333 5.86813333,15.6666 8.00013333,15.6666 C10.1354667,15.6666 12.0661333,14.7932667 13.4568,13.3832667" id="Stroke-1069"></path>
            </g>
        </g>
    </g>
</svg>