<?xml version="1.0" encoding="UTF-8"?>
<svg width="25px" height="25px" viewBox="0 0 25 25" version="1.1" xmlns="http://www.w3.org/2000/svg" xmlns:xlink="http://www.w3.org/1999/xlink">
    <!-- Generator: Sketch 47 (45396) - http://www.bohemiancoding.com/sketch -->
    <title>ICN24 / tonav support</title>
    <desc>Created with Sketch.</desc>
    <defs></defs>
    <g id="Symbols" stroke="none" stroke-width="1" fill="none" fill-rule="evenodd">
        <g id="ICN24-/-tonav-support">
            <path d="M11.3630857,14.4418945 L11.3630857,14.0991211 C11.3630857,13.6040014 11.4392569,13.1966976 11.5916014,12.8771973 C11.7439459,12.557697 12.0274717,12.2202166 12.4421873,11.8647461 C13.017711,11.37809 13.3805817,11.0120455 13.5308104,10.7666016 C13.681039,10.5211576 13.7561522,10.2249366 13.7561522,9.87792969 C13.7561522,9.4462869 13.617563,9.11303828 13.3403807,8.87817383 C13.0631983,8.64330937 12.6643579,8.52587891 12.1438475,8.52587891 C11.8095359,8.52587891 11.4836928,8.5650224 11.1663084,8.64331055 C10.848924,8.7215987 10.4849954,8.86441954 10.0745115,9.07177734 L9.69999981,8.21484375 C10.4998085,7.79589634 11.3355749,7.58642578 12.207324,7.58642578 C13.0155963,7.58642578 13.644008,7.78531702 14.0925779,8.18310547 C14.5411479,8.58089392 14.7654295,9.14159794 14.7654295,9.86523438 C14.7654295,10.1741552 14.7241701,10.4460437 14.6416502,10.6809082 C14.5591303,10.9157727 14.4374681,11.1379384 14.27666,11.3474121 C14.1158519,11.5568858 13.7688501,11.8943662 13.2356443,12.3598633 C12.8082333,12.7237974 12.5257655,13.026366 12.3882322,13.2675781 C12.250699,13.5087903 12.1819334,13.8304016 12.1819334,14.2324219 L12.1819334,14.4418945 L11.3630857,14.4418945 Z M11.0520506,16.3271484 C11.0520506,15.7516247 11.3059543,15.4638672 11.8137693,15.4638672 C12.0592133,15.4638672 12.2485831,15.5379224 12.3818846,15.6860352 C12.515186,15.8341479 12.5818357,16.0478502 12.5818357,16.3271484 C12.5818357,16.5979831 12.5141281,16.8085116 12.3787107,16.9587402 C12.2432934,17.1089689 12.0549815,17.184082 11.8137693,17.184082 C11.5937162,17.184082 11.4117518,17.1174323 11.2678709,16.9841309 C11.12399,16.8508294 11.0520506,16.6318375 11.0520506,16.3271484 Z" id="?" fill="#4A4A4A"></path>
            <path d="M12,23 C18.0751322,23 23,18.0751322 23,12 C23,5.92486775 18.0751322,1 12,1 C5.92486775,1 1,5.92486775 1,12 C1,18.0751322 5.92486775,23 12,23 Z M12,24 C5.372583,24 0,18.627417 0,12 C0,5.372583 5.372583,0 12,0 C18.627417,0 24,5.372583 24,12 C24,18.627417 18.627417,24 12,24 Z" id="Oval-2" fill="#555555" fill-rule="nonzero"></path>
        </g>
    </g>
</svg>
