<?xml version="1.0" encoding="UTF-8"?>
<svg width="25px" height="24px" viewBox="0 0 25 24" version="1.1" xmlns="http://www.w3.org/2000/svg" xmlns:xlink="http://www.w3.org/1999/xlink">
    <!-- Generator: Sketch 48.1 (47250) - http://www.bohemiancoding.com/sketch -->
    <title>icon</title>
    <desc>Created with Sketch.</desc>
    <defs></defs>
    <g id="Banner-option-1" stroke="none" stroke-width="1" fill="none" fill-rule="evenodd" transform="translate(-215.000000, -110.000000)" stroke-linejoin="round">
        <g id="Group-2" transform="translate(145.000000, 97.000000)" stroke="#FFFFFF">
            <g id="Group" transform="translate(71.000000, 14.000000)">
                <g id="icon">
                    <path d="M12,1.08660757 C10.7510943,-0.892479003 7,-0.1850294 7,3.34778783 C7.07878611,6.56454197 12,9 12,9 C12,9 16.9212139,6.56454197 17,3.34778783 C17,-0.1850294 13.2503648,-0.892479003 12,1.08660757 L12,1.08660757 Z" id="Stroke-5615"></path>
                    <polygon id="Stroke-2394" points="14 22 20 22 20 19 14 19"></polygon>
                    <path d="M19,18.6015795 L19,17.0705795 C19,17.0705795 22.186,13.9145795 23,13.1015795 L23,5.0385795 C23,5.0385795 20.5,4.1325795 20.5,11.1015795 L17.531,14.0705795 L18.219,11.0705795 C18.563,9.6325795 17.248,9.0175795 16.531,10.1325795 C15.871,11.1595795 15,14.0935795 15,14.0935795 L15,18.6015795" id="Stroke-2395" stroke-linecap="round"></path>
                    <polygon id="Stroke-2396" points="3 22 9 22 9 19 3 19"></polygon>
                    <path d="M4,18.6015795 L4,17.0705795 C4,17.0705795 1,13.9145795 0,13.1015795 L0,5.0385795 C0,5.0385795 2.5,4.1325795 2.5,11.1015795 L5.469,14.0705795 L4.781,11.0705795 C4.437,9.6325795 5.752,9.0175795 6.469,10.1325795 C7.129,11.1595795 8,14.0935795 8,14.0935795 L8,18.6015795" id="Stroke-2397" stroke-linecap="round"></path>
                </g>
            </g>
        </g>
    </g>
</svg>