<?xml version="1.0" encoding="UTF-8"?>
<svg width="20px" height="21px" viewBox="0 0 20 21" version="1.1" xmlns="http://www.w3.org/2000/svg" xmlns:xlink="http://www.w3.org/1999/xlink">
    <!-- Generator: Sketch 50 (54983) - http://www.bohemiancoding.com/sketch -->
    <title>icon</title>
    <desc>Created with Sketch.</desc>
    <defs></defs>
    <g id="Symbols" stroke="none" stroke-width="1" fill="none" fill-rule="evenodd">
        <g id="Header-/-Apps" transform="translate(-1136.000000, -35.000000)" fill="#888888">
            <g id="Header">
                <g id="User-Settings">
                    <g transform="translate(1136.000000, 25.000000)">
                        <g id="Help" transform="translate(0.000000, 10.000000)">
                            <g id="icon">
                                <path d="M10,14.2045549 C9.51913043,14.2045549 9.13043478,14.5755694 9.13043478,15.0327122 C9.13043478,15.4906832 9.51913043,15.8608696 10,15.8608696 C10.48,15.8608696 10.8695652,15.4906832 10.8695652,15.0327122 C10.8695652,14.5755694 10.48,14.2045549 10,14.2045549" id="Fill-4044"></path>
                                <path d="M10,1.40952381 C4.96521739,1.40952381 0.869565217,5.50517598 0.869565217,10.5399586 C0.869565217,15.5747412 4.96521739,19.6703934 10,19.6703934 C15.0347826,19.6703934 19.1304348,15.5747412 19.1304348,10.5399586 C19.1304348,5.50517598 15.0347826,1.40952381 10,1.40952381 M10,20.5399586 C4.48608696,20.5399586 0,16.0538716 0,10.5399586 C0,5.02604555 4.48608696,0.539958592 10,0.539958592 C15.513913,0.539958592 20,5.02604555 20,10.5399586 C20,16.0538716 15.513913,20.5399586 10,20.5399586" id="Fill-4045"></path>
                                <path d="M10,13.3763975 C9.76,13.3763975 9.56521739,13.1908903 9.56521739,12.9623188 L9.56521739,10.4778468 C9.56521739,10.2492754 9.76,10.0637681 10,10.0637681 C11.1982609,10.0637681 12.173913,9.13540373 12.173913,7.99337474 C12.173913,6.85134576 11.1982609,5.92298137 10,5.92298137 C8.80173913,5.92298137 7.82608696,6.85134576 7.82608696,7.99337474 C7.82608696,8.22194617 7.63130435,8.40745342 7.39130435,8.40745342 C7.15130435,8.40745342 6.95652174,8.22194617 6.95652174,7.99337474 C6.95652174,6.39503106 8.32173913,5.09482402 10,5.09482402 C11.6782609,5.09482402 13.0434783,6.39503106 13.0434783,7.99337474 C13.0434783,9.45093168 11.9078261,10.6608696 10.4347826,10.86294 L10.4347826,12.9623188 C10.4347826,13.1908903 10.24,13.3763975 10,13.3763975" id="Fill-4046"></path>
                            </g>
                        </g>
                    </g>
                </g>
            </g>
        </g>
    </g>
</svg>