<?xml version="1.0" encoding="UTF-8"?>
<svg width="20px" height="20px" viewBox="0 0 20 20" version="1.1" xmlns="http://www.w3.org/2000/svg" xmlns:xlink="http://www.w3.org/1999/xlink">
    <!-- Generator: Sketch 50 (54983) - http://www.bohemiancoding.com/sketch -->
    <title>icon</title>
    <desc>Created with Sketch.</desc>
    <defs></defs>
    <g id="Symbols" stroke="none" stroke-width="1" fill="none" fill-rule="evenodd">
        <g id="Header-/-Apps" transform="translate(-1186.000000, -35.000000)" fill="#888888">
            <g id="Header">
                <g id="User-Settings">
                    <g transform="translate(1136.000000, 25.000000)">
                        <g id="Notifications" transform="translate(50.000000, 7.793103)">
                            <g id="icon" transform="translate(0.000000, 2.206897)">
                                <path d="M2.45608333,16.2171546 L17.5435833,16.2171546 C17.00275,15.702252 16.6669167,14.9857603 16.6669167,14.1931666 L16.6669167,9.74039296 C16.6669167,7.05334648 14.92025,4.61646493 12.3210833,3.6765249 C12.1794167,3.6247108 12.0769167,3.50327152 12.0544167,3.35835398 C11.8969167,2.36579026 11.03275,1.64444094 10.00025,1.64444094 C8.98191667,1.64444094 8.09691667,2.38117257 7.94275,3.35835398 C7.92025,3.50327152 7.81775,3.6247108 7.67608333,3.6765249 C5.07858333,4.61565533 3.33358333,7.05253689 3.33358333,9.74039296 L3.33358333,14.1931666 C3.33358333,14.9857603 2.99691667,15.702252 2.45608333,16.2171546 M19.5835833,17.0267498 L0.416916667,17.0267498 C0.186083333,17.0267498 0.00025,16.8454005 0.00025,16.6219522 C0.00025,16.3985039 0.186083333,16.2171546 0.416916667,16.2171546 C1.56525,16.2171546 2.50025,15.3095984 2.50025,14.1931666 L2.50025,9.74039296 C2.50025,6.79184723 4.36608333,4.11289671 7.16691667,3.0005129 C7.47941667,1.75049791 8.65608333,0.834845735 10.00025,0.834845735 C11.3644167,0.834845735 12.5185833,1.73187722 12.8310833,3.0005129 C15.6335833,4.1137063 17.50025,6.79265683 17.50025,9.74039296 L17.50025,14.1931666 C17.50025,15.3095984 18.4344167,16.2171546 19.5835833,16.2171546 C19.8135833,16.2171546 20.00025,16.3985039 20.00025,16.6219522 C20.00025,16.8454005 19.8135833,17.0267498 19.5835833,17.0267498" id="Fill-3937"></path>
                                <path d="M10,19.4555354 C8.39166667,19.4555354 7.08333333,18.1844709 7.08333333,16.6219522 C7.08333333,16.3985039 7.27,16.2171546 7.5,16.2171546 C7.73,16.2171546 7.91666667,16.3985039 7.91666667,16.6219522 C7.91666667,17.738384 8.85166667,18.6459402 10,18.6459402 C11.1483333,18.6459402 12.0833333,17.738384 12.0833333,16.6219522 C12.0833333,16.3985039 12.27,16.2171546 12.5,16.2171546 C12.73,16.2171546 12.9166667,16.3985039 12.9166667,16.6219522 C12.9166667,18.1844709 11.6083333,19.4555354 10,19.4555354" id="Fill-3938"></path>
                            </g>
                        </g>
                    </g>
                </g>
            </g>
        </g>
    </g>
</svg>