<?xml version="1.0" encoding="UTF-8"?>
<svg width="73px" height="80px" viewBox="0 0 73 80" version="1.1" xmlns="http://www.w3.org/2000/svg" xmlns:xlink="http://www.w3.org/1999/xlink">
    <!-- Generator: Sketch 50 (54983) - http://www.bohemiancoding.com/sketch -->
    <title>Page 1</title>
    <desc>Created with Sketch.</desc>
    <defs>
        <polygon id="path-1" points="8.88586684e-17 2.50849981 8.88586684e-17 0.210271101 7.80504975 0.210271101 7.80504975 2.50849981"></polygon>
    </defs>
    <g id="Page-1" stroke="none" stroke-width="1" fill="none" fill-rule="evenodd">
        <g id="WM--Show-me-around-1-Copy-4" transform="translate(-114.000000, -243.000000)">
            <g id="Help-view-mode" transform="translate(75.000000, 208.000000)">
                <g id="balloon">
                    <g id="Text" transform="translate(39.000000, 35.000000)">
                        <g id="Page-1">
                            <path d="M67.4426035,33.3248707 C67.5310118,33.3064479 67.6158837,33.1154069 67.7022713,33.3377413 C67.9073785,33.3367319 68.1119806,33.3405174 68.3170879,33.3291609 C68.3453785,33.3276467 68.3741744,33.2529464 68.4012021,33.2027256 C68.4613197,33.0891609 68.5196692,33.1050599 68.5777661,33.2125678 C68.6659218,33.3743344 68.760645,33.3970473 68.8475377,33.2489085 C68.9134651,33.136858 69.1309495,33.1782461 69.1933405,33.2696025 C69.2804858,33.3970473 69.384555,33.3983091 69.4701848,33.3001388 C69.5484893,33.211306 69.6146692,33.1908644 69.688427,33.2756593 C69.7465239,33.1451861 69.7995689,33.1797603 69.8609495,33.2799495 C69.8998491,33.343041 70.3138526,33.3480883 70.4712194,33.376858 C70.5298215,33.3874574 70.5889287,33.5424101 70.6439945,33.5242397 C70.7025965,33.5050599 70.7586727,33.3897287 70.8246,33.3887192 C70.9822194,33.3864479 71.1400913,33.3672681 71.2979633,33.3627256 C71.6927696,33.3513691 72.6094374,33.3571735 72.670818,33.394776 C72.6988561,33.4116845 72.8536969,33.9565426 72.8476346,34.1978044 C72.8377834,34.5965426 72.7761502,35.4273312 72.5109253,35.4212744 C72.2459529,35.4152177 71.4361329,35.3955331 70.8983578,35.3867003 C70.8187903,35.3851861 70.6126727,35.2062587 70.5800879,35.2600126 C70.49269,35.4036088 70.3964512,35.3728202 70.301728,35.3644921 C70.0620152,35.0232934 69.8053785,35.1835457 69.5558145,35.1348391 C69.4749841,35.1186877 69.3987003,35.1403912 69.3274685,35.2668265 C69.2994304,35.3172997 69.1524201,35.1116215 69.1077107,35.1123785 C68.7603924,35.1174259 68.4133266,35.1406435 68.0660083,35.1499811 C68.000081,35.1514953 67.9442574,35.2648076 67.8854028,35.2827256 C67.8280637,35.3003912 67.7676934,35.1749653 67.7073232,35.1504858 C67.6292713,35.1189401 67.5497038,35.1171735 67.4708941,35.1176782 C66.7595862,35.123735 66.0480256,35.1333249 65.3367176,35.1411483 C65.3215619,35.1411483 65.3061536,35.1234826 65.2902401,35.1204543 C65.2538664,35.1138927 65.0426969,34.8350284 65.0426969,34.0494132 C65.0426969,33.1232303 65.5468768,33.1358486 65.8628734,33.1242397 C66.4784478,33.1027886 67.1430256,33.3864479 67.4426035,33.3248707" id="Fill-1" fill="#FFE986"></path>
                            <g id="Group-5" transform="translate(0.000000, 32.912808)">
                                <mask id="mask-2" fill="white">
                                    <use xlink:href="#path-1"></use>
                                </mask>
                                <g id="Clip-4"></g>
                                <path d="M2.3998308,0.412063091 C2.4882391,0.393640379 2.57311107,0.202599369 2.65949862,0.424933754 C2.86460588,0.42392429 3.06946055,0.427709779 3.27431522,0.416353312 C3.30260588,0.414839117 3.33165433,0.340138801 3.35842941,0.289917981 C3.41879965,0.176353312 3.47714913,0.192252366 3.53524602,0.299760252 C3.62314913,0.461526814 3.71812491,0.484239748 3.80501765,0.336100946 C3.87069239,0.224050473 4.08817682,0.265438486 4.15082042,0.356794953 C4.23796574,0.484239748 4.34178235,0.485501577 4.42766471,0.38733123 C4.50571661,0.298498423 4.57189654,0.278056782 4.64590692,0.362851735 C4.70400381,0.232378549 4.75704879,0.266952681 4.81817682,0.367141956 C4.85707647,0.430233438 5.27133253,0.435280757 5.42869931,0.464050473 C5.48730138,0.474649842 5.54615606,0.629602524 5.6012218,0.611432177 C5.66007647,0.592252366 5.7161526,0.476921136 5.78182734,0.475911672 C5.93944671,0.473640379 6.09731869,0.454460568 6.25519066,0.449917981 C6.64999689,0.438561514 7.56666471,0.444365931 7.62804533,0.481968454 C7.65633599,0.498876972 7.81117682,1.04373502 7.80486194,1.28499685 C7.79526332,1.68373502 7.73337751,2.51452366 7.4681526,2.50846688 C7.20343287,2.50241009 6.39336021,2.48272555 5.85583772,2.47389274 C5.77627024,2.47237855 5.5701526,2.2934511 5.53756782,2.34720505 C5.4499173,2.49080126 5.35367855,2.46001262 5.25920796,2.45168454 C5.01924256,2.1104858 4.76285848,2.27073817 4.51304187,2.22203155 C4.43221142,2.20588013 4.35592768,2.2275836 4.28494844,2.35401893 C4.25691038,2.40449211 4.1099,2.19881388 4.06519066,2.19957098 C3.71787232,2.2046183 3.37055398,2.22783596 3.02323564,2.2371735 C2.9575609,2.2386877 2.90173737,2.352 2.8426301,2.36991798 C2.785291,2.3875836 2.72517336,2.26215773 2.66455052,2.23767823 C2.58649862,2.20613249 2.50718374,2.20436593 2.42812145,2.20487066 C1.71681349,2.21092744 1.00550554,2.22051735 0.294197578,2.22834069 C0.278789273,2.22834069 0.263380969,2.21067508 0.247720069,2.20764669 C0.211346367,2.20108517 -7.57785467e-05,1.92222082 -7.57785467e-05,1.13660568 C-7.57785467e-05,0.210422713 0.504104152,0.223041009 0.820353287,0.211432177 C1.43592768,0.189981073 2.10050554,0.473640379 2.3998308,0.412063091" id="Fill-3" fill="#FFE986" mask="url(#mask-2)"></path>
                            </g>
                            <path d="M57.9670772,56.8629148 C58.0426031,56.9121262 58.2376066,56.8369211 58.1416204,57.05547 C58.2873678,57.199571 58.4293263,57.3469527 58.582399,57.4834826 C58.603617,57.5024101 58.6771221,57.4701073 58.7311775,57.4537035 C58.8541913,57.4161009 58.8842502,57.4680883 58.849392,57.5854385 C58.7968522,57.7620946 58.8481291,57.845123 59.0143367,57.8019685 C59.1403817,57.7691609 59.2646585,57.9516215 59.2441983,58.0606435 C59.215655,58.2125678 59.2881498,58.2867634 59.4182363,58.2779306 C59.5364509,58.2701073 59.5978315,58.3024101 59.590001,58.4144606 C59.7233713,58.3634826 59.7365062,58.4253123 59.7089734,58.5398864 C59.6915443,58.6118107 59.9810183,58.907836 60.0719526,59.0393186 C60.1058003,59.0882776 60.0375997,59.2394448 60.0893817,59.2656909 C60.1447,59.2934511 60.2661983,59.2515584 60.313181,59.2972366 C60.426091,59.4070158 60.5513782,59.5049338 60.666309,59.6131987 C60.9535097,59.8844921 61.5976273,60.5361009 61.6142986,60.6060063 C61.6223817,60.6375521 61.3462952,61.1324416 61.1714993,61.2984984 C60.8820253,61.5735773 60.2505374,62.1174259 60.0671533,61.9258801 C59.8840218,61.7343344 59.3252813,61.1480883 58.9514405,60.7622208 C58.8961221,60.7051861 58.8771775,60.4328833 58.8160495,60.4477729 C58.6523678,60.4873943 58.6063955,60.3978044 58.5452675,60.325123 C58.6170045,59.9145237 58.322226,59.8463849 58.1805201,59.6354069 C58.1342952,59.5670158 58.0653367,59.5286562 57.9256516,59.5677729 C57.8700806,59.5831672 57.9112536,59.3343344 57.879174,59.3032934 C57.6303678,59.0612744 57.368174,58.8326309 57.1160841,58.5936404 C57.0683436,58.5484669 56.9491187,58.5890978 56.8943055,58.5600757 C56.8415131,58.5318107 56.8877381,58.4008328 56.8619734,58.3407697 C56.829136,58.2635457 56.7743228,58.2055016 56.7184993,58.1504858 C56.2110356,57.6523155 55.701046,57.1566688 55.1928246,56.6592555 C55.1817104,56.6484038 55.183226,56.6251861 55.1741325,56.6120631 C55.1531671,56.5817792 55.2011602,56.2352808 55.7571221,55.6800757 C56.4126066,55.0249338 56.7604301,55.3901073 56.9920599,55.605123 C57.442437,56.0248076 57.7114509,56.6948391 57.9670772,56.8629148" id="Fill-6" fill="#FFE986"></path>
                            <path d="M11.9750311,10.9123533 C12.0505571,10.961817 12.2455606,10.886612 12.1495744,11.1051609 C12.2953218,11.2492618 12.4372803,11.3966435 12.5903529,11.5331735 C12.6115709,11.5521009 12.6850761,11.5197981 12.7391315,11.5033943 C12.8621453,11.4655394 12.8922042,11.5177792 12.8570934,11.6351293 C12.8048062,11.8115331 12.8558304,11.8948139 13.0222907,11.8516593 C13.1483356,11.8185994 13.2726125,12.0013123 13.2521522,12.1103344 C13.223609,12.2622587 13.2961038,12.3364543 13.4261903,12.3276215 C13.5444048,12.3197981 13.6057855,12.3521009 13.597955,12.4641514 C13.7313253,12.4129211 13.7444602,12.4750032 13.7169273,12.5895773 C13.6992457,12.6612492 13.9889723,12.9575268 14.0799066,13.0890095 C14.1137543,13.1377161 14.0455536,13.2891356 14.0973356,13.3151293 C14.152654,13.343142 14.2741522,13.3012492 14.3211349,13.3466751 C14.434045,13.4567066 14.5590796,13.5546246 14.674263,13.6626372 C14.9614637,13.9339306 15.6055813,14.5855394 15.6222526,14.6556972 C15.6303356,14.6872429 15.3542491,15.1818801 15.1794533,15.3481893 C14.8899792,15.6232681 14.2582388,16.1671167 14.0751073,15.9753186 C13.8919758,15.7840252 13.3332353,15.1977792 12.9593945,14.8119117 C12.9040761,14.754877 12.8851315,14.4823218 12.8240035,14.4972114 C12.6603218,14.5370852 12.6140969,14.4474953 12.5532215,14.3748139 C12.6247059,13.9642145 12.3301799,13.8960757 12.188474,13.6850978 C12.1422491,13.6167066 12.0732907,13.5780946 11.9333529,13.6174637 C11.877782,13.632858 11.9192076,13.3840252 11.887128,13.3527319 C11.6383218,13.1109653 11.376128,12.8823218 11.1240381,12.6433312 C11.0762976,12.5981577 10.9568201,12.6387886 10.9022595,12.6097666 C10.8494671,12.5815016 10.895692,12.4505237 10.8699273,12.3902082 C10.83709,12.3132366 10.7822768,12.2551924 10.7264533,12.2001767 C10.2189896,11.7017539 9.709,11.2063596 9.20077855,10.7089464 C9.18966436,10.6980946 9.19117993,10.674877 9.18208651,10.6617539 C9.16112111,10.63147 9.20911419,10.2849716 9.76507612,9.7295142 C10.4205606,9.07462461 10.7683841,9.43979811 11.0000138,9.65481388 C11.450391,10.0744984 11.7194048,10.74453 11.9750311,10.9123533" id="Fill-8" fill="#FFE986"></path>
                            <path d="M14.8680287,57.4332114 C14.8185201,57.5086688 14.8937934,57.7037476 14.675046,57.6075962 C14.5308142,57.7532114 14.383046,57.895041 14.2466446,58.0479748 C14.2277,58.0691735 14.2600322,58.142612 14.2764509,58.1966183 C14.3140875,58.3195205 14.2618003,58.3495521 14.1448488,58.3147256 C13.9680322,58.2622334 13.8846758,58.3134637 13.9281221,58.4795205 C13.9607069,58.6054511 13.7780806,58.7296151 13.6689595,58.7091735 C13.5168972,58.6806562 13.4426343,58.7533375 13.4514751,58.883306 C13.4593055,59.0014132 13.4269734,59.0624858 13.3148211,59.0549148 C13.3658453,59.1879117 13.3039595,59.2012871 13.1892813,59.1735268 C13.1175443,59.1561136 12.8209976,59.4455773 12.6893955,59.5361767 C12.6406446,59.5699937 12.4890875,59.5021073 12.4630702,59.5538423 C12.4350322,59.608858 12.4772156,59.7302461 12.4314958,59.7771861 C12.3213644,59.8902461 12.2233574,60.0151672 12.1152467,60.1302461 C11.8437069,60.4171861 11.1915062,61.0604669 11.1212848,61.077123 C11.0897104,61.0851987 10.5946239,60.8093628 10.4281637,60.6347256 C10.1525824,60.3457666 9.60849239,59.7145994 9.80046471,59.5313817 C9.99167924,59.3486688 10.5787104,58.790183 10.965181,58.4166814 C11.0220149,58.3616656 11.2948176,58.3427382 11.2799145,58.2814132 C11.2400045,58.1181325 11.3296758,58.0719495 11.4024232,58.010877 C11.8133955,58.0825489 11.8813436,57.7882902 12.0927657,57.6467129 C12.161219,57.60053 12.1998661,57.5313817 12.1604612,57.3918233 C12.1448003,57.3363028 12.3941118,57.3776909 12.4254336,57.3456404 C12.6674197,57.0968076 12.8960183,56.8348517 13.1354785,56.5832429 C13.1806931,56.5352934 13.1400253,56.4161767 13.1690737,56.3616656 C13.1971118,56.3089211 13.3284612,56.3548517 13.3885789,56.3291104 C13.465873,56.2965552 13.5237173,56.2417918 13.578783,56.1857666 C14.0776585,55.6787634 14.5737554,55.1692366 15.0713678,54.6614763 C15.082482,54.6506246 15.1057208,54.6521388 15.1186031,54.6430536 C15.1491671,54.6221073 15.4959803,54.6700568 16.0519422,55.2255142 C16.7074266,55.8804038 16.342174,56.2276593 16.1267104,56.4593312 C15.7066446,56.9092997 15.0357519,57.1780694 14.8680287,57.4332114" id="Fill-10" fill="#FFE986"></path>
                            <path d="M60.8600747,11.4829022 C60.8105661,11.5583596 60.8858394,11.7531861 60.667092,11.6572871 C60.5231128,11.8029022 60.3753446,11.9447319 60.2386907,12.0976656 C60.219746,12.1188644 60.2520782,12.1923028 60.2684969,12.2463091 C60.3061336,12.3692114 60.254099,12.3992429 60.1368948,12.3644164 C59.9600782,12.3119243 59.8767218,12.3631546 59.9201682,12.5292114 C59.9527529,12.655142 59.7701266,12.779306 59.6610055,12.7588644 C59.5091958,12.730347 59.4346803,12.802776 59.4435211,12.9327445 C59.4513516,13.0508517 59.4190194,13.1121767 59.3068671,13.1046057 C59.3578913,13.2376025 59.2960055,13.2509779 59.1815799,13.2232177 C59.1095903,13.2058044 58.8130436,13.4950158 58.6814415,13.5858675 C58.6326907,13.6196845 58.4811336,13.5517981 58.4551163,13.6032808 C58.4270782,13.6585489 58.4692616,13.7799369 58.4235419,13.826877 C58.3134104,13.9396845 58.2154035,14.064858 58.1072927,14.1796845 C57.8357529,14.4666246 57.1835522,15.1101577 57.1135834,15.1268139 C57.0817564,15.1348896 56.5866699,14.8590536 56.4202097,14.6844164 C56.144881,14.395205 55.6005384,13.7642902 55.7925107,13.5810726 C55.9839779,13.3981073 56.571009,12.8398738 56.957227,12.4663722 C57.0140609,12.4113565 57.2868637,12.3921767 57.2719606,12.3311041 C57.2320505,12.167571 57.3217218,12.1216404 57.3944692,12.0605678 C57.8054415,12.1322397 57.8736422,11.8379811 58.0848118,11.6961514 C58.1532651,11.6502208 58.1919121,11.5810726 58.1525073,11.4415142 C58.137099,11.3859937 58.3861578,11.4271293 58.4174796,11.3950789 C58.6594657,11.1464984 58.888317,10.8845426 59.1275246,10.6326814 C59.1727391,10.5849842 59.1320713,10.4658675 59.1611197,10.4111041 C59.1894104,10.3583596 59.3205073,10.4045426 59.3808775,10.3788013 C59.457919,10.3462461 59.5160159,10.2912303 59.5710817,10.2354574 C60.0697045,9.72845426 60.566054,9.21892744 61.0636664,8.71116719 C61.074528,8.70031546 61.0977668,8.70182965 61.1109017,8.69249211 C61.1412131,8.67154574 61.4880263,8.71974763 62.0439882,9.27495268 C62.6994727,9.92984227 62.3342201,10.2773502 62.1187564,10.5090221 C61.6986907,10.9587382 61.0280505,11.2275079 60.8600747,11.4829022" id="Fill-12" fill="#FFE986"></path>
                            <path d="M38.5256363,2.39772871 C38.5438232,2.48605678 38.7352903,2.57085174 38.512754,2.65716088 C38.5137644,2.86208202 38.5097228,3.06649842 38.5210896,3.27141956 C38.5228578,3.29968454 38.597626,3.32870662 38.6476398,3.35545741 C38.7613076,3.4155205 38.7456467,3.4740694 38.6380412,3.5318612 C38.4761277,3.61993691 38.4533941,3.7148265 38.6016675,3.80138801 C38.7135671,3.86725552 38.6723941,4.08454259 38.5809547,4.14712934 C38.4533941,4.23419558 38.4521311,4.33791798 38.5501381,4.4237224 C38.6393042,4.50170347 38.6597644,4.56782334 38.5748924,4.64176656 C38.7054841,4.69955836 38.6708785,4.75280757 38.5703457,4.81388013 C38.5071969,4.85274448 38.5023976,5.26637224 38.4736017,5.42384858 C38.4627401,5.48239748 38.3078993,5.54119874 38.3258336,5.59621451 C38.3450308,5.65476341 38.4604668,5.71104101 38.4614772,5.77665615 C38.4637505,5.93413249 38.4829478,6.0918612 38.4877471,6.24958991 C38.4991138,6.64403785 38.4930516,7.55987382 38.4556675,7.62119874 C38.438491,7.64921136 37.8931381,7.80391167 37.6519097,7.79785489 C37.2528093,7.78801262 36.4212661,7.72643533 36.4273284,7.4614511 C36.4331381,7.19671924 36.4530931,6.38763407 36.4619339,5.85059937 C36.4631969,5.7711041 36.6422869,5.5651735 36.5887367,5.5326183 C36.4447574,5.44504732 36.4758266,5.3488959 36.4839097,5.25451104 C36.8254183,5.01476341 36.665273,4.75861199 36.7140239,4.50902208 C36.73019,4.42826498 36.7082142,4.35205047 36.5819166,4.28113565 C36.5313976,4.25312303 36.73701,4.10624606 36.7362522,4.06132492 C36.7314529,3.71457413 36.7079616,3.36757098 36.6988682,3.02082019 C36.6973526,2.95470032 36.5839374,2.89917981 36.5657505,2.84012618 C36.5483215,2.78283912 36.6736087,2.72252366 36.698363,2.6622082 C36.7299374,2.58422713 36.7317055,2.50473186 36.7312003,2.42599369 C36.7251381,1.71533123 36.7152869,1.00466877 36.707709,0.294006309 C36.707709,0.278611987 36.7253907,0.263217666 36.7281692,0.247570978 C36.7347367,0.211230284 37.0141069,0 37.800183,0 C38.7272073,0 38.7145775,0.503974763 38.7261969,0.819432177 C38.7476675,1.43470032 38.4637505,2.09842271 38.5256363,2.39772871" id="Fill-14" fill="#FFE986"></path>
                            <path d="M45.3910969,67.9916719 L27.4568408,67.9916719 C26.3454221,67.9916719 25.4360796,67.0831546 25.4360796,65.9727445 C25.4360796,64.8623344 26.3454221,63.953817 27.4568408,63.953817 L45.3910969,63.953817 C46.5025156,63.953817 47.4118581,64.8623344 47.4118581,65.9727445 C47.4118581,67.0831546 46.5025156,67.9916719 45.3910969,67.9916719" id="Fill-16" fill="#FFFFFF"></path>
                            <path d="M45.3910969,72.2818927 L27.4568408,72.2818927 C26.3454221,72.2818927 25.4360796,71.3733754 25.4360796,70.2629653 C25.4360796,69.1525552 26.3454221,68.2440379 27.4568408,68.2440379 L45.3910969,68.2440379 C46.5025156,68.2440379 47.4118581,69.1525552 47.4118581,70.2629653 C47.4118581,71.3733754 46.5025156,72.2818927 45.3910969,72.2818927" id="Fill-18" fill="#FFFFFF"></path>
                            <path d="M43.3954941,76.5721136 L29.4524941,76.5721136 C28.4590374,76.5721136 27.6461862,75.76 27.6461862,74.7676972 L27.6461862,74.3386751 C27.6461862,73.3463722 28.4590374,72.5342587 29.4524941,72.5342587 L43.3954941,72.5342587 C44.3889509,72.5342587 45.2015495,73.3463722 45.2015495,74.3386751 L45.2015495,74.7676972 C45.2015495,75.76 44.3889509,76.5721136 43.3954941,76.5721136" id="Fill-20" fill="#FFFFFF"></path>
                            <path d="M32.0035536,76.8244795 C32.0035536,76.8244795 35.1665502,79.2138801 36.4239689,79.2219558 C37.7796471,79.2305363 41.2232768,76.6982965 41.2232768,76.6982965" id="Fill-22" fill="#FFFFFF"></path>
                            <path d="M57.6419619,36.0220315 C57.6419619,47.4118107 48.2444118,48.7369842 46.9551661,61.1579306 C46.9551661,62.3155331 46.0172803,63.2518107 44.8578685,63.2518107 L28.4937439,63.2518107 C27.3358478,63.2518107 26.3979619,62.3155331 26.3979619,61.1579306 L26.394173,61.1579306 C25.1079585,48.7369842 15.7111661,47.4118107 15.7111661,36.0220315 C15.7111661,24.4525678 25.0965917,15.0756593 36.676564,15.0756593 C48.2565363,15.0756593 57.6419619,24.4525678 57.6419619,36.0220315" id="Fill-24" fill="#FFFFFF"></path>
                            <path d="M44.5131772,61.165224 C44.5131772,62.1794826 43.8152567,62.9996719 42.9526443,62.9996719 L30.7783156,62.9996719 C29.9169661,62.9996719 29.2187931,62.1794826 29.2187931,61.165224 L29.2160145,61.165224 C28.2591841,50.285224 19.626492,47.1798612 19.626492,37.2030789 C19.626492,27.0688202 28.2508484,20.7992934 36.8661114,20.7992934 C45.4811218,20.7992934 53.3648692,26.3571483 53.7268381,37.2030789 C53.9794332,44.7740568 45.472281,50.285224 44.5131772,61.165224" id="Fill-26" fill="#FFF4C3"></path>
                            <path d="M56.6113484,37.030511 C56.541127,38.2262208 56.2824696,39.4012366 55.7525249,40.8321514 C55.2038882,42.5802902 54.2389747,44.2759369 53.0184349,45.9521514 C51.807999,47.6344227 50.3725007,49.3378927 49.1229125,51.2985237 C48.5224938,52.3168202 47.8935318,53.5440757 47.3916253,54.8801009 C46.9942931,55.8698801 46.6510163,56.8894385 46.3686149,57.9241388 C46.0819194,58.9593438 45.8932308,60.0122145 45.7368744,61.0577666 L45.7351062,61.0754322 L45.7318225,61.1577035 C45.7123727,61.6202902 45.3885457,62.0129716 44.9904557,62.1497539 C44.892954,62.1888707 44.7886322,62.2030032 44.6843104,62.2115836 C44.6580405,62.2120883 44.6317706,62.2136025 44.6055007,62.2158738 L44.4516702,62.2156215 L44.1447671,62.2156215 C43.7360682,62.2166309 43.3309055,62.2214259 42.9292792,62.2310158 C41.719601,62.2602902 40.5225526,62.2827508 39.3272723,62.300164 C39.3368709,62.0566309 39.356826,61.817388 39.3752654,61.5683028 C39.4371512,61.3492492 39.4848917,61.180164 39.5270751,61.0310158 C39.6319021,60.5404164 39.6463,60.113918 39.6872204,59.5011735 C39.8981374,58.3960631 40.1860958,57.3469779 40.3462412,56.3753691 C40.3992862,56.0589022 40.3712481,55.8686183 40.4220197,55.644265 C40.4561201,55.4930978 40.5283623,55.4017413 40.5705457,55.2238233 C40.6170232,55.0284921 40.6124765,54.8167571 40.6581962,54.6067886 C40.8039436,53.9269148 41.0037464,53.2485552 41.136864,52.5199748 C41.1664176,52.3559369 41.1527775,52.1542965 41.2126426,51.9377666 C41.3821339,51.3232555 41.463217,50.9729716 41.5652654,50.4525931 C41.698383,49.776 41.9188986,49.0999117 42.0313035,48.5535394 C42.1187014,48.1247697 42.1361304,47.8494385 42.1755353,47.6609211 C42.4220682,46.491205 42.890127,45.3984606 43.0487567,44.3339811 C43.1606564,43.5872303 43.0293069,43.2846435 42.7711547,43.8113312 C42.734781,43.8151167 42.6958813,43.8206688 42.6496564,43.8327823 C42.5223484,43.8620568 42.3495734,43.9246435 42.0547948,43.9882397 C41.8878294,44.0225615 41.6286668,44.075306 41.3151962,44.0869148 C41.0032412,44.1005426 40.6420301,44.0788391 40.3012792,44.0172618 C39.9991754,43.9725931 39.6715595,43.9016782 39.355563,43.8072934 C39.4449817,43.7479874 39.5265699,43.6881767 39.6000751,43.6283659 C39.6622135,43.5738549 39.7215734,43.5221199 39.7781547,43.4721514 C39.8299367,43.4158738 39.8774246,43.3583344 39.9241547,43.303571 C40.0236772,43.1990915 40.0878363,43.0718991 40.1620993,42.9487445 C40.4232827,42.511142 40.4924938,41.9993438 40.4619298,41.5337287 C40.437428,41.0701325 40.3128986,40.5548013 39.9509298,40.1459685 C39.5980543,39.7391546 39.009255,39.5092492 38.479563,39.6071672 C37.9475976,39.6869148 37.4845907,40.0119621 37.2112827,40.4321514 C37.0175422,40.7781451 36.9339332,41.1410473 36.9139782,41.4448959 C36.8755837,41.758082 36.8957913,42.0818675 36.9554038,42.4202902 C37.0175422,42.8341703 37.2004211,43.2445174 37.4694349,43.5836972 C37.0824592,43.6467886 36.6934626,43.6838864 36.3211374,43.7303218 C35.9932689,43.7739811 35.5380924,43.7267886 35.2079505,43.6384606 C35.1372239,43.6157476 35.0624557,43.5927823 34.9876875,43.5695647 C35.0750855,43.4734132 35.1604626,43.3704479 35.2364938,43.2528454 C35.4524626,42.9245174 35.600736,42.5260315 35.6825768,42.1146751 C35.7295595,41.9062208 35.746736,41.703571 35.765428,41.484265 C35.7649228,41.3676719 35.7644176,41.2503218 35.7636599,41.1324669 C35.7570924,41.0141073 35.7282965,40.8909527 35.7083415,40.7705741 C35.6045249,40.2872934 35.2867602,39.7974511 34.8300682,39.5453375 C34.3776702,39.2891861 33.8570716,39.2606688 33.4385215,39.3772618 C33.0141616,39.4895647 32.6880612,39.7381451 32.4917948,39.9776404 C32.441781,40.0377035 32.3889886,40.0919621 32.3523623,40.1492492 C32.3175042,40.2077981 32.285172,40.2625615 32.2551131,40.3132871 C32.2260647,40.364265 32.1995422,40.411205 32.1755457,40.4538549 C32.1555907,40.4975142 32.1427083,40.5376404 32.1293208,40.5724669 C32.0805699,40.7110158 32.0103484,40.8513312 31.9759955,41.0083028 C31.9259817,41.1609842 31.9040059,41.3290599 31.8979436,41.5014259 C31.9052689,41.8620568 31.9944349,42.1429401 32.1318467,42.4609211 C32.2685007,42.7836972 32.3594349,43.0189022 32.6226391,43.3076088 C32.7461581,43.4383344 32.8747291,43.5448328 33.0065837,43.6359369 C32.8931685,43.649817 32.7784903,43.6589022 32.6650751,43.6631924 C32.2139401,43.6742965 31.7706356,43.6230662 31.3677464,43.5592177 C31.0370993,43.5185868 30.418999,43.4552429 30.2447083,43.551142 C30.1009817,43.3830662 30.0095422,43.4845174 30.0557671,43.9337287 C30.0898675,44.2688707 30.126999,44.611836 30.0342965,44.7236341 C29.9850405,44.7834448 30.0252031,45.0274826 30.082037,45.2654637 C30.1527637,45.4524669 30.2252585,45.644265 30.2980059,45.8363155 L30.3285699,46.2262208 C30.4869471,46.7188391 30.4861893,46.7160631 30.4268294,46.9926562 C30.4187464,47.0310158 30.4235457,47.1014259 30.4225353,47.156694 C30.4715388,47.2914574 30.5207948,47.4272303 30.5690405,47.5609842 C30.7039263,47.922877 31.0060301,49.6344227 31.0765042,49.8451483 C31.0888813,49.9700694 31.1022689,50.106347 31.1156564,50.242877 C31.4864661,51.3908896 31.6385284,52.6226877 31.9633657,53.7971987 C32.034345,54.0530978 32.1490232,54.2782082 32.24021,54.6211735 C32.5344834,55.7439495 32.6284488,56.9848328 32.8815491,58.0972618 C32.9462135,58.3872303 33.0361374,58.5565678 33.0800889,58.7819306 C33.1182308,58.9873565 33.0960024,59.190511 33.1417221,59.396694 C33.2202792,59.7714574 33.2773657,60.1141703 33.338999,60.4750536 C33.3372308,60.7014259 33.3334419,60.8750536 33.3268744,61.0279874 C33.3503657,61.4744227 33.4274073,61.8524669 33.4996495,62.3448328 C32.8860958,62.3455899 32.2705215,62.3453375 31.6483796,62.343571 L28.2989678,62.3390284 L28.2466806,62.338776 L28.214601,62.3365047 L28.1549886,62.3334763 C28.114826,62.3352429 28.0769367,62.322877 28.0377844,62.3188391 C27.9602377,62.3059685 27.8847118,62.284265 27.812217,62.2557476 C27.6667221,62.1989653 27.5320889,62.1124038 27.4191789,62.0021199 C27.1903277,61.7815521 27.0622619,61.4751798 27.0635249,61.1577035 C27.0637775,61.125653 27.0577152,61.094612 27.0546841,61.0630662 L27.0551893,61.0633186 L27.0531685,61.0496909 C27.0501374,61.020164 27.0483692,60.9898801 27.0423069,60.9611104 L26.9155042,59.9508896 C26.8571547,59.5809211 26.788954,59.2122145 26.7255526,58.8430032 C26.4482031,57.8827508 26.1554453,56.8500694 25.7838779,55.7982082 C25.4072585,54.7493754 24.9586495,53.6831293 24.4418398,52.6575142 C24.2044003,52.3059685 23.6037291,51.4148644 22.9707256,50.5797855 C22.3410059,49.7414259 21.6984038,48.9444543 21.490518,48.6438864 C20.4664972,47.1577035 19.8683519,46.1876088 19.0244315,45.0178927 C18.9069747,44.8528454 18.7609747,44.6247066 18.6215422,44.3569464 C18.5500578,44.2239495 18.4740266,44.0833817 18.4010266,43.9375142 C18.3323208,43.7901325 18.2618467,43.6389653 18.1908675,43.4875457 C18.0461304,43.1867256 17.9337256,42.8742965 17.8117221,42.6022461 C17.7084107,42.3231293 17.6106564,42.0778297 17.5262896,41.8963785 C17.4606149,41.7078612 17.3585664,41.4650852 17.2370682,41.1940442 C17.1362827,40.9164416 17.0006391,40.6148644 16.8960647,40.3024353 C16.6770647,39.6813628 16.5080785,39.0378297 16.4689263,38.6418675 C16.4393727,38.2883028 16.3860751,37.9602271 16.3638467,37.6308896 C16.3327775,37.3030662 16.2878156,36.9820568 16.2693761,36.6466625 C16.242601,36.31253 16.2074903,35.9688076 16.2021858,35.5978297 C16.1963761,35.4123407 16.1903138,35.220795 16.1837464,35.0214259 C16.1842516,34.8220568 16.1928398,34.6151167 16.1991547,34.3978297 C16.2034488,34.2214259 16.2309817,33.8885552 16.3024661,33.4809842 C16.3375768,33.2770726 16.3653623,33.0522145 16.4168917,32.820795 C16.4689263,32.5901325 16.5234869,32.3493754 16.5780474,32.1078612 C16.8187706,31.1473565 17.1557325,30.2093123 17.3254765,29.8572618 C17.5982792,28.8351798 17.9933381,27.8421199 18.453819,26.9232555 C18.6781235,26.460164 18.944864,26.0296278 19.2025111,25.6119621 C19.4839021,25.2081767 19.7516529,24.813224 20.0565353,24.4689968 C21.7822654,22.0331609 23.8800682,20.1616151 26.2377913,18.7617413 C29.3990197,16.8750536 32.9356045,16.0043912 36.5282654,16.0995331 C38.216864,16.162877 39.9751789,16.3140442 41.7125284,16.7397855 L42.3642239,16.9012997 L43.0085941,17.0951167 L43.3319159,17.1935394 L43.649428,17.3078612 C43.8605976,17.3850852 44.0737879,17.4590284 44.2841997,17.5402902 C45.1182689,17.8817413 45.9371824,18.2688707 46.7033035,18.7354953 C47.8094176,19.4461577 48.7922654,20.2421199 49.5841512,20.9903849 C50.389172,21.6934763 51.1381166,22.4465363 51.8090093,23.2483028 C52.4771235,24.0520883 53.0752689,24.8944858 53.6042031,25.7595962 C54.6517152,27.4968833 55.3935872,29.329817 55.8555837,31.1327192 C56.2961097,32.6224353 56.5436529,33.8080505 56.6126114,35.0105741 C56.6237256,35.3570726 56.6343346,35.6864101 56.6451962,36.0220568 C56.634082,36.356694 56.6229678,36.6850221 56.6113484,37.030511 M37.7235457,41.4819937 C37.7371858,41.3260315 37.7803796,41.2162524 37.8122066,41.0913312 C37.8394869,41.0363155 37.8644938,40.9805426 37.8887429,40.9240126 C37.9152654,40.8687445 37.9559332,40.8253375 37.9867498,40.7736025 C38.1287083,40.5853375 38.3259851,40.4477981 38.5399332,40.3907634 C38.8405215,40.3604795 39.0736668,40.4750536 39.2004696,40.6110789 C39.667518,40.9785237 39.6983346,41.9339811 39.4856495,42.3826877 C39.459127,42.4990284 39.3934522,42.5878612 39.3457118,42.6865363 C39.2765007,42.7708265 39.2206772,42.8639495 39.1337844,42.9336025 C38.9807118,43.089817 38.7791408,43.2016151 38.5634246,43.2977666 C38.5078536,43.3199748 38.4510197,43.3386498 38.394691,43.358082 C38.2330301,43.2344227 38.0675803,43.0749274 37.9468398,42.8748013 C37.6427152,42.4276088 37.6654488,41.7825615 37.7235457,41.4819937 M34.8669471,41.4718991 C34.8474972,41.6303849 34.8394142,41.7924038 34.8032931,41.9423091 C34.736608,42.4417413 34.597428,42.7496278 34.4178329,42.991142 C34.3162896,43.100164 34.2084315,43.1799117 34.108909,43.241489 C33.659037,43.0252114 33.2738294,42.7117729 33.0459886,42.3185868 C32.8926633,42.054612 32.8184003,41.7606057 32.8338087,41.4671041 C32.8502273,41.1756215 32.9487394,40.8730347 33.1096426,40.6494385 C33.2718087,40.4245804 33.5089955,40.2774511 33.7631062,40.2348013 C34.0167118,40.1906372 34.2791581,40.2529716 34.4723934,40.4001009 C34.6686599,40.5459685 34.7949574,40.777388 34.8411824,41.0474196 C34.8778087,41.1783975 34.8606322,41.3285552 34.8669471,41.4718991 M34.3362446,61.2399748 C34.3430647,61.0067886 34.3481166,60.8268517 34.3526633,60.6681136 C34.3183104,60.158082 34.2069159,59.7378927 34.0427291,59.1448328 C33.8750059,58.0301325 33.7428986,56.9530347 33.506217,56.0011104 C33.4284176,55.6909527 33.32839,55.5286814 33.2831754,55.3048328 C33.2526114,55.153918 33.2814073,55.0418675 33.2470543,54.8631924 C33.2099228,54.6673565 33.1184834,54.4773249 33.0717533,54.2696278 C32.922217,53.5960631 32.8120855,52.9030662 32.615819,52.1951798 C32.5718675,52.0356845 32.4705768,51.8623091 32.4288986,51.6437603 C32.3119471,51.0229401 32.2268225,50.6769464 32.084864,50.171205 C31.8999644,49.5140442 31.7883173,48.818776 31.6357498,48.2875457 C31.5167775,47.8708896 31.4028571,47.6225615 31.3508225,47.4390915 C31.0252273,46.3026877 30.9186322,45.1304479 30.5427706,44.1323407 C30.5028606,44.026347 30.4629505,43.9337287 30.4243035,43.8517098 C30.531909,43.9206057 30.6822031,43.998082 30.8873104,44.082877 C31.1563242,44.1896278 31.5172827,44.3092492 32.0075699,44.3869779 C32.252082,44.4265994 32.5304419,44.4525931 32.8459332,44.4457792 C33.1604142,44.4374511 33.5160682,44.3975773 33.8984972,44.2678612 C33.9634142,44.2459054 34.0462654,44.2153691 34.1404834,44.1739811 C34.4322308,44.2729085 34.7282723,44.3481136 35.0225457,44.3950536 C35.4693865,44.4629401 35.9323934,44.4881767 36.3312412,44.4806057 C37.0433069,44.4778297 37.7182412,44.4192808 38.2752135,44.27947 C38.4709747,44.398082 38.6750716,44.4995331 38.88321,44.5805426 C39.3396495,44.753918 39.8233692,44.8520883 40.2848606,44.8798486 C40.7450889,44.9124038 41.2083484,44.8967571 41.6483692,44.7927823 C41.9499678,44.725653 42.2391893,44.6030032 42.4652619,44.4551167 C42.4157533,44.5341073 42.365992,44.591142 42.3159782,44.6110789 C42.2439886,44.6403533 42.1596218,44.8770726 42.0949574,45.1165678 C42.0669194,45.3174511 42.0383761,45.5231293 42.0093277,45.7295647 L41.8494349,46.0927192 C41.7542066,46.6088076 41.7542066,46.6057792 41.5708225,46.8255899 C41.5453104,46.8561262 41.5165145,46.921489 41.4894869,46.9709527 C41.468774,47.1148013 41.4480612,47.2599117 41.427601,47.4027508 C41.3732931,47.7903849 40.8468848,49.4746751 40.8153104,49.698776 C40.7690855,49.8178927 40.7190716,49.9476088 40.6688052,50.0770726 C40.4755699,51.2871672 40.0633346,52.4795962 39.8531754,53.7028139 C39.8074557,53.9695647 39.8178121,54.2267256 39.7546633,54.5823091 C39.5513242,55.7439495 39.1358052,56.9426877 38.9642931,58.1010473 C38.9203415,58.402877 38.9425699,58.5969464 38.9034176,58.8286183 C38.8695699,59.0403533 38.779646,59.2296278 38.7523657,59.4451483 C38.706646,59.8378297 38.6465284,60.1898801 38.6071235,60.5689338 C38.5386702,60.7932871 38.4878986,60.9679243 38.4462204,61.1236341 C38.3686737,61.5158107 38.3514972,61.8724038 38.3676633,62.3132871 C37.0662931,62.3291861 35.7639125,62.3392808 34.4481443,62.3433186 C34.4190958,61.951142 34.3867637,61.6043912 34.3362446,61.2399748 M56.8801097,28.3743596 C56.4779782,27.1602271 55.9300993,25.902183 55.2604696,24.7062208 C53.1763069,21.1251483 50.1287464,18.5020568 47.0877533,16.9921514 C46.372909,16.5666625 45.0975561,15.8999117 43.4460889,15.3550536 C42.6254073,15.0693754 41.7052031,14.8440126 40.7405422,14.6479243 C39.771082,14.4720252 38.7523657,14.3420568 37.7240509,14.2958738 C35.6686841,14.2017413 33.5873,14.4101956 31.8299955,14.8230662 C30.0686495,15.2273565 28.6334038,15.7964416 27.7336599,16.1936656 C26.4562862,16.7057161 24.8411927,17.4729085 23.0947498,18.7251483 C21.0714626,20.2850221 19.258082,22.271142 17.8693138,24.5366309 C16.4729678,26.7968202 15.504518,29.3265363 15.0215561,31.8726562 C14.9786149,32.0689968 14.9250647,32.3412997 14.8644419,32.6713943 C14.8172066,33.0035079 14.7679505,33.3941703 14.7186945,33.824959 C14.6542827,34.6903218 14.5961858,35.7146751 14.668428,36.75947 C14.7305664,37.8019937 14.8672204,38.8629401 15.1021339,39.7724669 C15.1491166,40.0016151 15.2168121,40.2186498 15.2776875,40.4255899 C15.3415941,40.6320252 15.3911028,40.8316467 15.4598087,41.0120883 C15.5951997,41.3734763 15.6992689,41.6917098 15.8162204,41.9317098 C15.8861893,42.1078612 15.9634834,42.3029401 16.0425457,42.5015521 C16.1251443,42.6983975 16.2059747,42.8917098 16.2792273,43.0660946 C16.4638744,43.5637603 16.7945215,44.2994069 17.2512135,45.104959 C17.7033588,45.9137918 18.2787706,46.7895016 18.8670647,47.6180189 C20.0418848,49.2288707 21.1803311,50.7897539 21.6332343,51.4105741 C22.6456356,52.8909527 23.4973865,54.4455268 24.1063934,56.0975142 C24.7247464,57.7447066 25.0844419,59.4840126 25.2723727,61.2477981 C25.2736356,61.2591546 25.277172,61.2697539 25.2789401,61.2811104 C25.2981374,61.7230032 25.4113,62.1646435 25.6189332,62.5583344 C25.8487948,62.9873565 26.1839886,63.3565678 26.5861201,63.6301325 C26.9910301,63.8991546 27.4641408,64.0715205 27.9488709,64.1209842 L28.1307394,64.1315836 C28.1921201,64.134612 28.2560266,64.1371356 28.2916426,64.1363785 L28.5487844,64.1371356 L29.0628156,64.1391546 C31.1224765,64.0629401 32.8322931,64.0001009 34.1662481,63.9508896 C35.5188952,63.9556845 37.944819,63.9897539 40.5359401,64.0273565 C41.8315007,64.0460315 43.1684869,64.0652114 44.4334834,64.0831293 L44.5516979,64.0848959 L44.612826,64.0854006 L44.6949194,64.082877 C44.8040405,64.0788391 44.912909,64.0763155 45.0205145,64.0578927 C45.1288779,64.0445174 45.2357256,64.026347 45.3403,63.9973249 C45.44639,63.9743596 45.548691,63.9405426 45.6494765,63.9029401 C46.0521131,63.7550536 46.4138294,63.5223722 46.7038087,63.2334132 C47.2658329,62.6807319 47.5484869,61.9319621 47.5724834,61.2472934 C47.7311131,59.8128454 47.9821927,58.7155584 48.2032135,57.8693754 C48.2610578,57.6583975 48.3151131,57.4625615 48.365127,57.2803533 C48.4224661,57.1004164 48.4755111,56.9343596 48.5242619,56.7811735 C48.5727602,56.6274826 48.617217,56.4869148 48.6578848,56.3582082 C48.7033519,56.2310158 48.7447775,56.1156845 48.7824142,56.0109527 C49.4055664,54.5770095 50.2307948,53.1438233 51.2391547,51.7000379 C52.2361478,50.2496909 53.4301651,48.790511 54.5847775,47.133224 C55.330691,46.023571 56.0235595,44.8377035 56.551736,43.6596593 C57.1210855,42.4697539 57.5699471,41.2036341 57.8442654,39.9097539 C58.1241408,38.6168833 58.2458917,37.3058423 58.2479125,36.0220568 C58.2456391,33.4554953 57.7644453,30.8346751 56.8801097,28.3743596" id="Fill-28" fill="#FFD30E"></path>
                            <path d="M42.3167865,68.2440379 L30.4049042,68.2440379 C29.4781325,68.2440379 28.7198419,67.4864353 28.7198419,66.5605047 L28.7198419,65.8897161 C28.7198419,64.9637855 29.4781325,64.206183 30.4049042,64.206183 L42.3167865,64.206183 C43.2435581,64.206183 44.0018488,64.9637855 44.0018488,65.8897161 L44.0018488,66.5605047 C44.0018488,67.4864353 43.2435581,68.2440379 42.3167865,68.2440379" id="Fill-30" fill="#D1F2FD"></path>
                            <path d="M42.3167865,72.5342587 L30.4049042,72.5342587 C29.4781325,72.5342587 28.7198419,71.7766562 28.7198419,70.8507256 L28.7198419,70.1799369 C28.7198419,69.2540063 29.4781325,68.4964038 30.4049042,68.4964038 L42.3167865,68.4964038 C43.2435581,68.4964038 44.0018488,69.2540063 44.0018488,70.1799369 L44.0018488,70.8507256 C44.0018488,71.7766562 43.2435581,72.5342587 42.3167865,72.5342587" id="Fill-32" fill="#D1F2FD"></path>
                            <path d="M40.9585824,76.8244795 L31.7631083,76.8244795 C30.9343436,76.8244795 30.2568834,76.1471293 30.2568834,75.3196215 L30.2568834,74.2914826 C30.2568834,73.4639748 30.9343436,72.7866246 31.7631083,72.7866246 L40.9585824,72.7866246 C41.7870945,72.7866246 42.4648073,73.4639748 42.4648073,74.2914826 L42.4648073,75.3196215 C42.4648073,76.1471293 41.7870945,76.8244795 40.9585824,76.8244795" id="Fill-34" fill="#D1F2FD"></path>
                            <path d="M33.2867623,77.0768454 C33.2867623,77.0768454 35.4863609,79.4662461 36.3608453,79.4743218 C37.3035304,79.4829022 39.6983851,76.9506625 39.6983851,76.9506625" id="Fill-36" fill="#D1F2FD"></path>
                            <path d="M46.4204727,71.1698927 C46.165099,71.4676845 45.7851958,71.6509022 45.3911474,71.6554448 L43.5315419,71.6377792 C43.5315419,71.6377792 43.0379709,71.6509022 42.8063412,71.6476215 C42.5320228,71.643836 42.2577045,71.6261703 41.9849017,71.6276845 C37.8673481,71.6539306 33.6631543,71.5196719 29.6994311,71.8427003 C29.0133827,71.8414385 28.3177356,71.8401767 27.6281509,71.8391672 C27.4389571,71.837653 27.3247841,71.8391672 27.1898983,71.8114069 C27.0585488,71.7889464 26.931746,71.7465489 26.8130263,71.6895142 C26.5758394,71.5746877 26.368964,71.4008076 26.2287737,71.1885678 C25.7591993,70.4844669 25.9004,69.5820063 26.5556318,69.0343722 C26.7069363,68.9099558 26.8923412,68.8112808 27.0954277,68.7575268 C27.1967183,68.7297666 27.3023031,68.7146246 27.4094035,68.7105868 C27.5205453,68.7040252 27.6804381,68.7078107 27.8135557,68.707306 C28.3710332,68.7098297 28.9244692,68.7249716 29.424355,68.7547508 C31.5736872,68.8819432 33.6553239,68.9995457 35.8794242,68.8254132 C36.109791,68.8074953 36.4351336,68.7999243 36.6601958,68.8150662 C39.3533654,68.9960126 42.1281232,68.9233312 44.8892408,68.9354448 L45.3168844,68.9311546 C45.3987253,68.9291356 45.4343412,68.9339306 45.4833446,68.9349401 C45.5308325,68.9326688 45.5762997,68.9450347 45.6232824,68.9495773 C45.8079294,68.9796088 45.9880298,69.0477476 46.1464069,69.1542461 C46.4644242,69.3664858 46.6887287,69.7167697 46.7397529,70.0948139 C46.7958291,70.4761388 46.6796353,70.874877 46.4204727,71.1698927 M44.2138014,75.5893249 C44.0003585,75.8096404 43.7033066,75.9401136 43.3953931,75.9456656 L41.8603723,75.928 C41.8603723,75.928 41.4529363,75.941123 41.2617218,75.9378423 C41.0353965,75.9340568 40.8088187,75.9163912 40.5837564,75.9179054 C37.1843308,75.9441514 33.7136734,75.8098927 30.4415557,76.1329211 C30.1583965,76.1319117 29.8732166,76.1309022 29.5875315,76.1298927 C29.4294069,76.1283785 29.3435246,76.1314069 29.2323827,76.1099558 C29.1257875,76.095571 29.0239917,76.0599874 28.9237114,76.0221325 C28.5284,75.8520379 28.2285696,75.479041 28.1644104,75.0815647 C28.1335938,74.9139937 28.1429398,74.7774637 28.1507702,74.5344353 L28.155317,74.3719117 C28.1563273,74.3143722 28.1626422,74.2891356 28.164663,74.2464858 C28.1729986,74.1705237 28.1838602,74.0943091 28.2065938,74.0213754 C28.2861612,73.7283785 28.4599467,73.452795 28.7294657,73.2450978 C28.8519744,73.1489464 29.0022685,73.076265 29.1644346,73.0356341 C29.2455176,73.0164543 29.3293792,73.0028265 29.4147564,73.0003028 C29.5034173,72.9944984 29.6377979,72.9977792 29.746919,72.9975268 C30.2068948,73.0000505 30.664092,73.0151924 31.0765799,73.0449716 C32.8508083,73.172164 34.5694657,73.2897666 36.4055799,73.1156341 C36.5955315,73.0977161 36.8642927,73.0901451 37.0499502,73.1052871 C38.161874,73.1956341 39.2902166,73.2228896 40.4258844,73.228694 C40.9934657,73.2281893 41.5630678,73.2274322 42.1329225,73.2269274 L42.9882097,73.2244038 L43.4080228,73.2251609 C43.495926,73.2297035 43.5838291,73.236265 43.6676907,73.2615016 C43.9478187,73.3256025 44.2067287,73.5108391 44.3628325,73.7619432 C44.4413896,73.8868644 44.4946872,74.025918 44.5191889,74.1712808 C44.5275246,74.2071167 44.5310609,74.2442145 44.5318187,74.2813123 L44.536618,74.3368328 L44.5376284,74.4241514 L44.5414173,74.7734259 C44.5469744,75.0722271 44.4280021,75.3697666 44.2138014,75.5893249 M36.432355,78.5909653 L36.4280609,78.5909653 C35.8925592,78.5876845 34.6108913,77.8568328 33.4767391,77.0959495 C33.8609363,77.0946877 34.2463965,77.0946877 34.6338775,77.0946877 C35.943836,77.0934259 37.9651024,77.0911546 39.5377599,77.0896404 C38.3313654,77.8669274 37.0029675,78.5909653 36.432355,78.5909653 M26.5556318,64.7441514 C26.7069363,64.619735 26.8923412,64.5210599 27.0954277,64.467306 C27.1967183,64.4395457 27.3023031,64.4244038 27.4094035,64.4203659 C27.5205453,64.4138044 27.6804381,64.4175899 27.8135557,64.4170852 C28.3710332,64.4196088 28.9244692,64.4350032 29.424355,64.46453 C31.5736872,64.5917224 33.6553239,64.7093249 35.8794242,64.5351924 C36.109791,64.5172744 36.4351336,64.5097035 36.6601958,64.5248454 C39.3533654,64.7057918 42.1281232,64.6331104 44.8892408,64.645224 L45.3168844,64.6409338 C45.3987253,64.6389148 45.4343412,64.6437098 45.4833446,64.6447192 C45.5308325,64.6424479 45.5762997,64.6548139 45.6232824,64.6593565 C45.8079294,64.689388 45.9880298,64.7575268 46.1464069,64.8640252 C46.4644242,65.076265 46.6887287,65.4265489 46.7397529,65.8045931 C46.7958291,66.185918 46.6796353,66.5846562 46.4204727,66.8796719 C46.165099,67.1774637 45.7851958,67.3606814 45.3911474,67.365224 L43.5315419,67.3475584 C43.5315419,67.3475584 43.0379709,67.3606814 42.8063412,67.3574006 C42.5320228,67.3536151 42.2577045,67.3359495 41.9849017,67.3374637 C37.8673481,67.3637098 33.6631543,67.2294511 29.6994311,67.5524795 C29.0133827,67.5512177 28.3177356,67.5499558 27.6281509,67.5489464 C27.4389571,67.5474322 27.3247841,67.5489464 27.1898983,67.5211861 C27.0585488,67.4987256 26.931746,67.4563281 26.8130263,67.3992934 C26.5758394,67.2844669 26.368964,67.1105868 26.2287737,66.898347 C25.7591993,66.1942461 25.9004,65.2917855 26.5556318,64.7441514 M47.1555246,68.4476215 C47.0299848,68.3221956 46.8892893,68.2129211 46.7397529,68.1172744 C47.0052304,67.948694 47.2403965,67.7324164 47.4265592,67.4797981 C47.7887806,66.993489 47.9716595,66.3681262 47.914573,65.7637098 C47.8643066,65.1572744 47.5856941,64.5778423 47.1555246,64.1574006 C46.7291439,63.7314069 46.1431232,63.4699558 45.5421993,63.4250347 C45.403272,63.4136782 45.3067806,63.4129211 45.2070055,63.4101451 L44.9049017,63.4010599 C44.703836,63.3942461 44.5037806,63.3876845 44.3042304,63.381123 C43.9051301,63.3695142 43.5080505,63.3579054 43.1099606,63.3465489 C42.313528,63.3306498 41.513054,63.3354448 40.6850471,63.3992934 C40.219009,63.434877 39.5822166,63.4126688 39.0451993,63.3950032 C37.4308637,63.3430158 35.8963481,63.1979054 34.171881,63.2854763 C32.5865938,63.3657287 30.9485142,63.2844669 29.2919952,63.3682524 C28.6903135,63.3985363 28.0818118,63.4199874 27.4702789,63.4323533 C26.7044104,63.4381577 25.9392997,63.8088833 25.4656837,64.415571 C25.2262235,64.717653 25.0516803,65.0737413 24.9635246,65.4538044 C24.8776422,65.8338675 24.8786526,66.2326057 24.9663031,66.6164543 C25.105483,67.2458549 25.4934692,67.8071167 26.023919,68.1884416 C25.8135073,68.332795 25.6225453,68.5046562 25.4656837,68.7057918 C25.2262235,69.0078738 25.0516803,69.3639621 24.9635246,69.7440252 C24.8776422,70.1240883 24.8786526,70.5228265 24.9663031,70.9066751 C25.1370574,71.6784101 25.6778637,72.3524795 26.402054,72.7105868 C26.618528,72.8125426 26.8696076,72.9003659 27.1416526,72.9364543 C27.2088429,72.9488202 27.2783066,72.9498297 27.3472651,72.9556341 L27.4518394,72.9616909 L27.5319121,72.963205 C27.5513619,72.9634574 27.5708118,72.9634574 27.5905142,72.9637098 C27.4381993,73.163836 27.3154381,73.3879369 27.2318291,73.6281893 C27.2058118,73.7061703 27.185099,73.7861703 27.162618,73.865918 C27.1469571,73.9466751 27.1315488,74.0281893 27.118919,74.1097035 L27.100227,74.3529842 L27.0918913,74.5435205 L27.0827979,74.7340568 C27.0795142,74.7963912 27.0822927,74.8950662 27.0833031,74.9740568 C27.0913862,75.141123 27.1179087,75.3079369 27.1578187,75.4724795 C27.2421855,75.7997981 27.3972789,76.1091987 27.6071855,76.3784732 C27.7291889,76.5412492 27.8933758,76.6929211 28.0800436,76.8302082 C28.2702478,76.963205 28.4892478,77.0707129 28.7196145,77.1454132 C28.9517495,77.2143091 29.193483,77.2491356 29.4238498,77.2463596 C29.6069813,77.2425741 29.7567702,77.2319748 29.9075696,77.2203659 C30.4198325,77.1777161 30.9358844,77.1527319 31.4539571,77.1343091 C31.4951301,77.2074953 31.5514588,77.2738675 31.6226907,77.3276215 C32.1789052,77.7478107 35.0238844,79.8437098 36.4199779,79.852795 L36.4295765,79.852795 C37.922919,79.852795 40.9954865,77.6491356 41.5976734,77.2064858 C41.6446561,77.1719117 41.6830505,77.130776 41.7174035,77.0871167 L41.8603723,77.0871167 C42.2534104,77.0876215 42.6472062,77.0886309 43.0387287,77.0891356 C43.1579536,77.0886309 43.2774311,77.0845931 43.3953931,77.0782839 L43.6239917,77.0742461 C43.6997702,77.0669274 43.776054,77.055571 43.8518325,77.0434574 C44.3562651,76.9407445 44.8258394,76.6694511 45.1567391,76.2765174 C45.4883965,75.8868644 45.6950194,75.3823849 45.7101751,74.8683155 C45.7162374,74.6129211 45.7172478,74.4827003 45.7094173,74.2222587 C45.6962824,73.9676215 45.6457633,73.7119748 45.5485142,73.4755079 C45.4482339,73.2264227 45.3052651,72.9967697 45.1307218,72.7946246 C45.2173619,72.792858 45.3047599,72.7921009 45.3911474,72.7880631 C45.4803135,72.787306 45.5709952,72.7865489 45.6611716,72.7809968 C45.7508429,72.7688833 45.8415246,72.7595457 45.9301855,72.7401136 C46.5278256,72.6151924 47.0671163,72.2578423 47.4265592,71.7700189 C47.7887806,71.2837098 47.9716595,70.658347 47.914573,70.0539306 C47.8643066,69.4474953 47.5856941,68.8680631 47.1555246,68.4476215" id="Fill-38" fill="#05A1DB"></path>
                        </g>
                    </g>
                </g>
            </g>
        </g>
    </g>
</svg>