<?xml version="1.0" encoding="UTF-8"?>
<svg width="23px" height="21px" viewBox="0 0 23 21" version="1.1" xmlns="http://www.w3.org/2000/svg" xmlns:xlink="http://www.w3.org/1999/xlink">
    <g id="Symbols" stroke="none" stroke-width="1" fill="none" fill-rule="evenodd" opacity="1" stroke-linejoin="round">
        <g id="Footer" transform="translate(-1194.000000, -321.000000)" stroke="#FFFFFF">
            <g id="footer">
                <g id="Group-6" transform="translate(1092.000000, 320.000000)">
                    <g id="ICN-linkedin" transform="translate(103.000000, 1.000000)">
                        <path d="M14.5,11.5 C13.395,11.5 12.5,12.396 12.5,13.5 L12.5,20.5 L7.5,20.5 C7.5,20.5 7.559,8.5 7.5,7.5 L12.5,7.5 L12.5,8.985 C12.5,8.985 14.048,7.542 16.439,7.542 C19.4,7.542 21.5,9.685 21.5,13.846 L21.5,20.5 L16.5,20.5 L16.5,13.5 C16.5,12.396 15.605,11.5 14.5,11.5 L14.5,11.5 Z M2.99,5.5 L2.961,5.5 C1.45,5.5 0.473,4.318 0.473,3.019 C0.473,1.69 1.48,0.607 3.02,0.607 C4.561,0.607 5.508,1.725 5.538,3.054 C5.538,4.354 4.561,5.5 2.99,5.5 L2.99,5.5 Z M5.5,20.5 L0.5,20.5 L0.5,7.5 L5.5,7.5 L5.5,20.5 Z" id="Stroke-69"></path>
                    </g>
                </g>
            </g>
        </g>
    </g>
</svg>
